# xmcd
# Track frame offsets:
# 150
# 14857
# 29890
# 42133
# 55078
# 65512
# 77123
# 89599
# 100292
# 113691
# 126145
# 140272
#
# Disc length: 2027 seconds
# Revision: 2
# Processed by: cddbd v1.5.2PL0 Copyright (c) Steve Scherf et al.
# Submitted via: VisiTrax 2.11.2.271 - For more info visit www.synapsa.com
#
DISCID=a807e90c
DTITLE=Slim Dusty - Way Out There
DYEAR=1975
DGENRE=Australian Country
TTITLE0=Slim Dusty - Way Out There
TTITLE1=Slim Dusty - Pay Day At The Pub
TTITLE2=Slim Dusty - Sunny Southern Sue
TTITLE3=Slim Dusty With Joy Mckean - Faded Coat Of Blue
TTITLE4=Slim Dusty - Silver Spurs
TTITLE5=Slim Dusty - Big Moon
TTITLE6=Slim Dusty - My Home On The Sunburnt Plains
TTITLE7=Slim Dusty - Highway Blues
TTITLE8=Slim Dusty - My Journey Home (It's Never The Same)
TTITLE9=Slim Dusty With Joy McKean - Mother's Wedding Band
TTITLE10=Slim Dusty - The Decimal Currency Pub
TTITLE11=Slim Dusty - Showers Of Blessings
EXTD=1996 EMI Music Australia
EXTT0=
EXTT1=
EXTT2=
EXTT3=
EXTT4=
EXTT5=
EXTT6=
EXTT7=
EXTT8=
EXTT9=
EXTT10=
EXTT11=
PLAYORDER=
